# xmcd
#
# Track frame offsets:
#	150
#	30257
#	44857
#	62062
#	84287
#	100660
#	128447
#	141600
#	154140
#	171852
#	183372
#	199387
#	216565
#	230652
#	247032
#	261360
#	275862
#	294085
#	308095
#
# Disc length: 4333 seconds
#
# Revision: 1
# Processed by: cddbd v1.5PL3 Copyright (c) Steve Scherf et al.
# Submitted via: CDex 1.50Beta5
#
DISCID=2210eb13
DTITLE=Mahalia Jackson - All About Mahalia Jackson
DYEAR=1900
DGENRE=R&B
TTITLE0=Summertime~Sometimes I Feel Like A Motherless Child
TTITLE1=Danny Boy
TTITLE2=Nobody Knows The Trouble I've Seen
TTITLE3=Abraham,Martin And John
TTITLE4=The Green Leaves Of Summer
TTITLE5=Move On Up A Little Higher
TTITLE6=My Faith
TTITLE7=We Shall Overcome
TTITLE8=When The Saints Go Marching In
TTITLE9=Joshua Fit The Battle Of Jericho
TTITLE10=Down By The Riverside
TTITLE11=Crying In The Chapel
TTITLE12=I Believe
TTITLE13=What The World Needs Now Is Love
TTITLE14=Because
TTITLE15=Sunrise,Sunset
TTITLE16=Deep River
TTITLE17=Abide With Me
TTITLE18=The Lord's Prayer
EXTD=
EXTT0=
EXTT1=
EXTT2=
EXTT3=
EXTT4=
EXTT5=
EXTT6=
EXTT7=
EXTT8=
EXTT9=
EXTT10=
EXTT11=
EXTT12=
EXTT13=
EXTT14=
EXTT15=
EXTT16=
EXTT17=
EXTT18=
PLAYORDER=
